<?xml version="1.0" encoding="utf-8"?>
<!-- Generator: Adobe Illustrator 27.3.1, SVG Export Plug-In . SVG Version: 6.00 Build 0)  -->
<svg version="1.1" id="Layer_1" xmlns="http://www.w3.org/2000/svg" xmlns:xlink="http://www.w3.org/1999/xlink" x="0px" y="0px"
	 width="35px" height="35px" viewBox="0 0 35 35" style="enable-background:new 0 0 35 35;" xml:space="preserve">
<style type="text/css">
	.st0{fill:#A1BAA2;}
</style>
<g>
	<g>
		<circle class="st0" cx="17.5" cy="17.5" r="17.5"/>
	</g>
	<path d="M27,18C27,18,27,18,27,18c0-0.1,0.1-0.1,0.1-0.2c0,0,0,0,0,0c0,0,0-0.1,0-0.1c0-0.1,0-0.1,0-0.2s0-0.1,0-0.2
		c0,0,0-0.1,0-0.1c0,0,0,0,0,0c0,0,0-0.1-0.1-0.1c0,0,0,0,0,0c0,0-0.1-0.1-0.1-0.1c0,0,0,0,0,0l-6.2-6.1c-0.3-0.3-0.9-0.3-1.2,0
		c-0.3,0.3-0.3,0.9,0,1.2l4.7,4.6H8.8c-0.5,0-0.9,0.4-0.9,0.9s0.4,0.9,0.9,0.9h15.4L19.4,23c-0.3,0.3-0.3,0.9,0,1.2
		c0.2,0.2,0.4,0.3,0.6,0.3c0.2,0,0.4-0.1,0.6-0.3l6.2-6.1c0,0,0,0,0,0C26.9,18.1,26.9,18,27,18z"/>
</g>
</svg>
